<?xml version="1.0" encoding="UTF-8" standalone="no"?>
<!-- Created with Inkscape (http://www.inkscape.org/) -->

<svg
   width="92mm"
   height="92mm"
   viewBox="0 0 92 92"
   version="1.1"
   id="svg2549"
   inkscape:version="1.2.1 (9c6d41e410, 2022-07-14)"
   sodipodi:docname="Rangoli.svg"
   xmlns:inkscape="http://www.inkscape.org/namespaces/inkscape"
   xmlns:sodipodi="http://sodipodi.sourceforge.net/DTD/sodipodi-0.dtd"
   xmlns="http://www.w3.org/2000/svg"
   xmlns:svg="http://www.w3.org/2000/svg">
  <sodipodi:namedview
     id="namedview2551"
     pagecolor="#ffffff"
     bordercolor="#666666"
     borderopacity="1.0"
     inkscape:showpageshadow="2"
     inkscape:pageopacity="0.0"
     inkscape:pagecheckerboard="0"
     inkscape:deskcolor="#d1d1d1"
     inkscape:document-units="mm"
     showgrid="false"
     inkscape:zoom="0.46769781"
     inkscape:cx="360.27537"
     inkscape:cy="208.46794"
     inkscape:window-width="1366"
     inkscape:window-height="706"
     inkscape:window-x="-8"
     inkscape:window-y="-8"
     inkscape:window-maximized="1"
     inkscape:current-layer="layer1" />
  <defs
     id="defs2546" />
  <g
     inkscape:label="Layer 1"
     inkscape:groupmode="layer"
     id="layer1">
    <g
       id="g2740"
       transform="matrix(-1.007315,0,0,1.007315,325.08143,-82.521262)">
      <circle
         style="fill:#6569c8;fill-opacity:1;fill-rule:evenodd;stroke-width:1.41083;stroke-linecap:square;paint-order:stroke markers fill"
         id="circle35173"
         cx="277.05478"
         cy="127.58796"
         r="34.956604" />
      <path
         id="path35207"
         style="fill:#b41b8d;fill-opacity:1;stroke:none;stroke-width:0.264583px;stroke-linecap:butt;stroke-linejoin:miter;stroke-opacity:1"
         d="m 305.17509,99.467649 c 0,0 -30.52875,1.379261 -21.76806,21.768061 20.3888,8.76069 21.76806,-21.768061 21.76806,-21.768061 z" />
      <circle
         style="fill:#fcdc40;fill-opacity:1;fill-rule:evenodd;stroke-width:0.927831;stroke-linecap:square;paint-order:stroke markers fill"
         id="circle35211"
         cx="286.1254"
         cy="-134.11172"
         r="2.4624841"
         transform="rotate(45)" />
      <path
         id="path35213"
         style="fill:#b41b8d;fill-opacity:1;stroke:none;stroke-width:0.264583px;stroke-linecap:butt;stroke-linejoin:miter;stroke-opacity:1"
         d="m 248.93447,155.70827 c 0,0 1.37926,-30.52875 21.76806,-21.76806 8.76069,20.3888 -21.76806,21.76806 -21.76806,21.76806 z" />
      <circle
         style="fill:#fcdc40;fill-opacity:1;fill-rule:evenodd;stroke-width:0.927831;stroke-linecap:square;paint-order:stroke markers fill"
         id="circle35217"
         cx="286.1254"
         cy="77.266289"
         r="2.4624841"
         transform="matrix(0.70710678,0.70710678,0.70710678,-0.70710678,0,0)" />
      <path
         id="path35219"
         style="fill:#b41b8d;fill-opacity:1;stroke:none;stroke-width:0.264583px;stroke-linecap:butt;stroke-linejoin:miter;stroke-opacity:1"
         d="m 305.17509,155.70827 c 0,0 -1.37926,-30.52875 -21.76806,-21.76806 -8.76069,20.3888 21.76806,21.76806 21.76806,21.76806 z" />
      <circle
         style="fill:#fcdc40;fill-opacity:1;fill-rule:evenodd;stroke-width:0.927831;stroke-linecap:square;paint-order:stroke markers fill"
         id="circle35223"
         cx="-105.68924"
         cy="-314.54834"
         r="2.4624841"
         transform="rotate(135)" />
      <path
         id="path35225"
         style="fill:#b41b8d;fill-opacity:1;stroke:none;stroke-width:0.264583px;stroke-linecap:butt;stroke-linejoin:miter;stroke-opacity:1"
         d="m 248.93447,99.467648 c 0,0 30.52874,1.379262 21.76806,21.768062 -20.3888,8.76068 -21.76806,-21.768062 -21.76806,-21.768062 z" />
      <path
         id="path35209"
         style="fill:#fcdc40;fill-opacity:1;stroke:none;stroke-width:0.131896px;stroke-linecap:butt;stroke-linejoin:miter;stroke-opacity:1"
         d="m 293.97975,110.66312 c 0,0 -15.21876,0.68756 -10.8515,10.8515 10.16394,4.36725 10.8515,-10.8515 10.8515,-10.8515 z" />
      <path
         id="path35181"
         style="fill:#e51573;fill-opacity:1;stroke:none;stroke-width:0.264583px;stroke-linecap:butt;stroke-linejoin:miter;stroke-opacity:1"
         d="m 277.05478,127.58796 c -23.35746,-23.35745 -45.66595,0 -45.66595,0 0,0 22.30849,23.35746 45.66595,0 z" />
      <path
         id="path35201"
         style="fill:#17cdfc;fill-opacity:1;stroke:none;stroke-width:0.339988px;stroke-linecap:butt;stroke-linejoin:miter;stroke-opacity:1"
         d="m 236.07362,127.58843 6.77168,-4.92067 11.44507,4.92067 -11.44507,4.91974 z"
         sodipodi:nodetypes="ccccc" />
      <path
         id="path35203"
         style="fill:#fcdc40;fill-opacity:1;stroke:none;stroke-width:0.169682px;stroke-linecap:butt;stroke-linejoin:miter;stroke-opacity:1"
         d="m 241.82962,127.5882 3.37963,-2.45582 5.71204,2.45582 -5.71204,2.45535 z"
         sodipodi:nodetypes="ccccc" />
      <path
         id="path35215"
         style="fill:#fcdc40;fill-opacity:1;stroke:none;stroke-width:0.131896px;stroke-linecap:butt;stroke-linejoin:miter;stroke-opacity:1"
         d="m 260.12938,144.51282 c 0,0 0.68756,-15.21874 10.8515,-10.8515 4.36724,10.16394 -10.8515,10.8515 -10.8515,10.8515 z" />
      <path
         id="path35221"
         style="fill:#fcdc40;fill-opacity:1;stroke:none;stroke-width:0.131896px;stroke-linecap:butt;stroke-linejoin:miter;stroke-opacity:1"
         d="m 293.97941,144.51317 c 0,0 -0.68756,-15.21876 -10.8515,-10.85151 -4.36725,10.16395 10.8515,10.85151 10.8515,10.85151 z" />
      <path
         id="path35175"
         style="fill:#e51573;fill-opacity:1;stroke:none;stroke-width:0.264583px;stroke-linecap:butt;stroke-linejoin:miter;stroke-opacity:1"
         d="m 277.05478,81.922012 c -23.35745,23.357458 0,45.665948 0,45.665948 0,0 23.35746,-22.30849 0,-45.665948 z" />
      <path
         id="path35183"
         style="fill:#17cdfc;fill-opacity:1;stroke:none;stroke-width:0.339988px;stroke-linecap:butt;stroke-linejoin:miter;stroke-opacity:1"
         d="m 277.05525,86.67608 -4.92067,6.77168 4.92067,11.44507 4.91974,-11.44507 z"
         sodipodi:nodetypes="ccccc" />
      <path
         id="path35185"
         style="fill:#fcdc40;fill-opacity:1;stroke:none;stroke-width:0.169682px;stroke-linecap:butt;stroke-linejoin:miter;stroke-opacity:1"
         d="m 277.05502,92.432081 -2.45582,3.37963 2.45582,5.712039 2.45535,-5.712039 z"
         sodipodi:nodetypes="ccccc" />
      <path
         id="path35177"
         style="fill:#e51573;fill-opacity:1;stroke:none;stroke-width:0.264583px;stroke-linecap:butt;stroke-linejoin:miter;stroke-opacity:1"
         d="m 277.05478,127.58796 c -23.35745,23.35746 0,45.66595 0,45.66595 0,0 23.35746,-22.30849 0,-45.66595 z" />
      <path
         id="path35189"
         style="fill:#17cdfc;fill-opacity:1;stroke:none;stroke-width:0.339988px;stroke-linecap:butt;stroke-linejoin:miter;stroke-opacity:1"
         d="m 277.05525,168.63768 -4.92067,-6.77168 4.92067,-11.44507 4.91974,11.44507 z"
         sodipodi:nodetypes="ccccc" />
      <path
         id="path35191"
         style="fill:#fcdc40;fill-opacity:1;stroke:none;stroke-width:0.169682px;stroke-linecap:butt;stroke-linejoin:miter;stroke-opacity:1"
         d="m 277.05502,162.88168 -2.45582,-3.37963 2.45582,-5.71204 2.45535,5.71204 z"
         sodipodi:nodetypes="ccccc" />
      <path
         id="path35179"
         style="fill:#e51573;fill-opacity:1;stroke:none;stroke-width:0.264583px;stroke-linecap:butt;stroke-linejoin:miter;stroke-opacity:1"
         d="m 322.72073,127.58796 c -23.35746,-23.35745 -45.66595,0 -45.66595,0 0,0 22.30849,23.35746 45.66595,0 z" />
      <path
         id="path35195"
         style="fill:#17cdfc;fill-opacity:1;stroke:none;stroke-width:0.339988px;stroke-linecap:butt;stroke-linejoin:miter;stroke-opacity:1"
         d="m 318.03522,127.58843 -6.77168,-4.92067 -11.44507,4.92067 11.44507,4.91974 z"
         sodipodi:nodetypes="ccccc" />
      <path
         id="path35197"
         style="fill:#fcdc40;fill-opacity:1;stroke:none;stroke-width:0.169682px;stroke-linecap:butt;stroke-linejoin:miter;stroke-opacity:1"
         d="m 312.27922,127.5882 -3.37963,-2.45582 -5.71204,2.45582 5.71204,2.45535 z"
         sodipodi:nodetypes="ccccc" />
      <g
         id="g483"
         style="fill:#6569c8;fill-opacity:1">
        <rect
           style="fill:#6569c8;fill-opacity:1;fill-rule:evenodd;stroke:none;stroke-width:1.32292;stroke-linecap:square;paint-order:stroke markers fill"
           id="rect35233"
           width="30.193092"
           height="30.193092"
           x="271.19946"
           y="-120.68244"
           transform="rotate(45)" />
      </g>
      <circle
         style="fill:#fcdc40;fill-opacity:1;fill-rule:evenodd;stroke-width:0.927831;stroke-linecap:square;paint-order:stroke markers fill"
         id="circle35229"
         cx="-105.68924"
         cy="257.70291"
         r="2.4624841"
         transform="matrix(-0.70710678,0.70710678,0.70710678,0.70710678,0,0)" />
      <path
         id="path35227"
         style="fill:#fcdc40;fill-opacity:1;stroke:none;stroke-width:0.131896px;stroke-linecap:butt;stroke-linejoin:miter;stroke-opacity:1"
         d="m 260.12971,110.66277 c 0,0 15.21874,0.68758 10.8515,10.85152 -10.16394,4.36724 -10.8515,-10.85152 -10.8515,-10.85152 z" />
      <rect
         style="fill:#6569c8;fill-opacity:1;fill-rule:evenodd;stroke:none;stroke-width:1.32292;stroke-linecap:square;paint-order:stroke markers fill"
         id="rect35231"
         width="30.193092"
         height="30.193092"
         x="261.95825"
         y="112.49141" />
      <g
         id="g491"
         transform="translate(2.6e-4,-0.110189)"
         style="fill:#17cdfc;fill-opacity:1">
        <path
           id="path35245"
           style="fill:#17cdfc;fill-opacity:1;stroke:none;stroke-width:0.117415px;stroke-linecap:butt;stroke-linejoin:miter;stroke-opacity:1"
           d="m 277.05464,108.54998 -1.21658,2.10705 1.21658,2.10086 1.21635,-2.10086 z" />
        <path
           id="path35247"
           style="fill:#17cdfc;fill-opacity:1;stroke:none;stroke-width:0.117415px;stroke-linecap:butt;stroke-linejoin:miter;stroke-opacity:1"
           d="m 277.05464,142.63841 -1.21658,2.10705 1.21658,2.10086 1.21635,-2.10086 z" />
      </g>
      <g
         id="g487"
         transform="translate(2.6e-4,-0.110189)"
         style="fill:#17cdfc;fill-opacity:1">
        <path
           id="path35249"
           style="fill:#17cdfc;fill-opacity:1;stroke:none;stroke-width:0.117415px;stroke-linecap:butt;stroke-linejoin:miter;stroke-opacity:1"
           d="m 296.20269,127.69826 -2.10705,-1.21657 -2.10086,1.21657 2.10086,1.21635 z" />
        <path
           id="path35251"
           style="fill:#17cdfc;fill-opacity:1;stroke:none;stroke-width:0.117415px;stroke-linecap:butt;stroke-linejoin:miter;stroke-opacity:1"
           d="m 262.11426,127.69826 -2.10705,-1.21657 -2.10086,1.21657 2.10086,1.21635 z" />
      </g>
      <circle
         style="fill:#fcdc40;fill-opacity:1;fill-rule:evenodd;stroke-width:5.35668;stroke-linecap:square;paint-order:stroke markers fill"
         id="circle35235"
         cx="277.05478"
         cy="127.58796"
         r="14.216745" />
      <g
         id="g454"
         transform="translate(3.75e-4,-6.5e-5)"
         style="fill:#f65740;fill-opacity:1">
        <path
           id="path35237"
           style="fill:#f65740;fill-opacity:1;stroke:none;stroke-width:0.264583px;stroke-linecap:butt;stroke-linejoin:miter;stroke-opacity:1"
           d="m 277.05478,118.10585 -2.74143,4.74803 2.74143,4.73408 2.74092,-4.73408 z" />
        <path
           id="path35239"
           style="fill:#f65740;fill-opacity:1;stroke:none;stroke-width:0.264583px;stroke-linecap:butt;stroke-linejoin:miter;stroke-opacity:1"
           d="m 277.05454,127.58809 -2.74143,4.74803 2.74143,4.73408 2.74092,-4.73408 z" />
        <path
           id="path35241"
           style="fill:#f65740;fill-opacity:1;stroke:none;stroke-width:0.264583px;stroke-linecap:butt;stroke-linejoin:miter;stroke-opacity:1"
           d="m 286.53658,127.5884 -4.74803,-2.74143 -4.73408,2.74143 4.73408,2.74092 z" />
        <path
           id="path35243"
           style="fill:#f65740;fill-opacity:1;stroke:none;stroke-width:0.264583px;stroke-linecap:butt;stroke-linejoin:miter;stroke-opacity:1"
           d="m 277.05434,127.58816 -4.74803,-2.74143 -4.73408,2.74143 4.73408,2.74092 z" />
      </g>
      <g
         id="g448"
         transform="translate(6.8272433e-4)"
         style="fill:#17cdfc;fill-opacity:1">
        <path
           id="path35253"
           style="fill:#17cdfc;fill-opacity:1;stroke:none;stroke-width:0.10146px;stroke-linecap:butt;stroke-linejoin:miter;stroke-opacity:1"
           d="m 289.43687,115.20544 c -12.66694,0 -12.38252,12.38252 -12.38252,12.38252 0,0 12.38252,0.28443 12.38252,-12.38252 z" />
        <path
           id="path35255"
           style="fill:#17cdfc;fill-opacity:1;stroke:none;stroke-width:0.10146px;stroke-linecap:butt;stroke-linejoin:miter;stroke-opacity:1"
           d="m 277.05435,127.58796 c -12.66694,0 -12.3825,12.38252 -12.3825,12.38252 0,0 12.3825,0.28443 12.3825,-12.38252 z" />
        <path
           id="path35257"
           style="fill:#17cdfc;fill-opacity:1;stroke:none;stroke-width:0.10146px;stroke-linecap:butt;stroke-linejoin:miter;stroke-opacity:1"
           d="m 289.43687,139.97048 c 0,-12.66695 -12.38252,-12.38252 -12.38252,-12.38252 0,0 -0.28442,12.38252 12.38252,12.38252 z" />
        <path
           id="path35259"
           style="fill:#17cdfc;fill-opacity:1;stroke:none;stroke-width:0.10146px;stroke-linecap:butt;stroke-linejoin:miter;stroke-opacity:1"
           d="m 277.05435,127.58796 c 0,-12.66695 -12.3825,-12.38252 -12.3825,-12.38252 0,0 -0.28444,12.38252 12.3825,12.38252 z" />
      </g>
      <circle
         style="fill:#febd30;fill-opacity:1;fill-rule:evenodd;stroke-width:1.32292;stroke-linecap:square;paint-order:stroke markers fill"
         id="circle35261"
         cx="277.05453"
         cy="127.69815"
         r="3.5110581" />
      <path
         id="path35263"
         style="fill:#17cdfc;fill-opacity:1;stroke:none;stroke-width:0.264583px;stroke-linecap:butt;stroke-linejoin:miter;stroke-opacity:1"
         d="m 297.08339,86.873487 c -6.47163,1.653846 -4.21978,7.472194 -4.21978,7.472194 0,0 6.1454,-1.076157 4.21978,-7.472194 z" />
      <path
         id="path35265"
         style="fill:#6569c8;fill-opacity:1;stroke:none;stroke-width:0.211119px;stroke-linecap:butt;stroke-linejoin:miter;stroke-opacity:1"
         d="m 301.04132,93.605583 c -4.58457,-2.718299 -6.59686,1.835083 -6.59686,1.835083 0,0 4.07455,2.860177 6.59686,-1.835083 z" />
      <path
         id="path35267"
         style="fill:#6569c8;fill-opacity:1;stroke:none;stroke-width:0.211119px;stroke-linecap:butt;stroke-linejoin:miter;stroke-opacity:1"
         d="m 289.27451,86.9605 c 4.69525,2.522302 1.83507,6.59686 1.83507,6.59686 0,0 -4.55338,-2.01229 -1.83507,-6.59686 z" />
      <path
         id="path35273"
         style="fill:#17cdfc;fill-opacity:1;stroke:none;stroke-width:0.264583px;stroke-linecap:butt;stroke-linejoin:miter;stroke-opacity:1"
         d="m 318.31607,108.47222 c -6.10652,-2.70697 -7.93944,3.25662 -7.93944,3.25662 0,0 5.49272,2.95875 7.93944,-3.25662 z" />
      <path
         id="path35275"
         style="fill:#6569c8;fill-opacity:1;stroke:none;stroke-width:0.211119px;stroke-linecap:butt;stroke-linejoin:miter;stroke-opacity:1"
         d="m 317.25749,116.20951 c -1.91809,-4.97275 -6.31705,-2.64214 -6.31705,-2.64214 0,0 1.42971,4.7685 6.31705,2.64214 z" />
      <path
         id="path35277"
         style="fill:#6569c8;fill-opacity:1;stroke:none;stroke-width:0.211119px;stroke-linecap:butt;stroke-linejoin:miter;stroke-opacity:1"
         d="m 312.12914,103.70692 c 2.12635,4.88733 -2.64215,6.31705 -2.64215,6.31705 0,0 -2.33062,-4.39896 2.64215,-6.31705 z" />
      <path
         id="path35313"
         style="fill:#17cdfc;fill-opacity:1;stroke:none;stroke-width:0.264583px;stroke-linecap:butt;stroke-linejoin:miter;stroke-opacity:1"
         d="m 235.79348,107.85482 c 1.62917,6.47789 7.45606,4.24823 7.45606,4.24823 0,0 -1.05272,-6.14946 -7.45606,-4.24823 z" />
      <path
         id="path35315"
         style="fill:#6569c8;fill-opacity:1;stroke:none;stroke-width:0.211119px;stroke-linecap:butt;stroke-linejoin:miter;stroke-opacity:1"
         d="m 242.54061,103.92258 c -2.73575,4.57417 1.80993,6.60381 1.80993,6.60381 0,0 2.87569,-4.06363 -1.80993,-6.60381 z" />
      <path
         id="path35317"
         style="fill:#6569c8;fill-opacity:1;stroke:none;stroke-width:0.211119px;stroke-linecap:butt;stroke-linejoin:miter;stroke-opacity:1"
         d="m 235.85074,115.66398 c 2.54017,-4.68561 6.60381,-1.80992 6.60381,-1.80992 0,0 -2.02963,4.54568 -6.60381,1.80992 z" />
      <path
         id="path35329"
         style="fill:#17cdfc;fill-opacity:1;stroke:none;stroke-width:0.264583px;stroke-linecap:butt;stroke-linejoin:miter;stroke-opacity:1"
         d="m 257.91454,86.909903 c -2.83881,6.046352 3.08361,8.008218 3.08361,8.008218 0,0 3.07722,-5.427231 -3.08361,-8.008218 z" />
      <path
         id="path35331"
         style="fill:#6569c8;fill-opacity:1;stroke:none;stroke-width:0.211119px;stroke-linecap:butt;stroke-linejoin:miter;stroke-opacity:1"
         d="m 265.62705,88.136087 c -5.0132,1.809761 -2.77857,6.258247 -2.77857,6.258247 0,0 4.79839,-1.325927 2.77857,-6.258247 z" />
      <path
         id="path35333"
         style="fill:#6569c8;fill-opacity:1;stroke:none;stroke-width:0.211119px;stroke-linecap:butt;stroke-linejoin:miter;stroke-opacity:1"
         d="m 253.01615,92.991993 c 4.9323,-2.019817 6.25823,2.77857 6.25823,2.77857 0,0 -4.44847,2.234637 -6.25823,-2.77857 z" />
      <path
         id="path911"
         style="fill:#17cdfc;fill-opacity:1;stroke:none;stroke-width:0.264583px;stroke-linecap:butt;stroke-linejoin:miter;stroke-opacity:1"
         d="m 297.08339,168.30244 c -6.47163,-1.65385 -4.21978,-7.4722 -4.21978,-7.4722 0,0 6.1454,1.07616 4.21978,7.4722 z" />
      <path
         id="path913"
         style="fill:#6569c8;fill-opacity:1;stroke:none;stroke-width:0.211119px;stroke-linecap:butt;stroke-linejoin:miter;stroke-opacity:1"
         d="m 301.04132,161.57034 c -4.58457,2.7183 -6.59686,-1.83508 -6.59686,-1.83508 0,0 4.07455,-2.86018 6.59686,1.83508 z" />
      <path
         id="path915"
         style="fill:#6569c8;fill-opacity:1;stroke:none;stroke-width:0.211119px;stroke-linecap:butt;stroke-linejoin:miter;stroke-opacity:1"
         d="m 289.27451,168.21542 c 4.69525,-2.5223 1.83507,-6.59686 1.83507,-6.59686 0,0 -4.55338,2.01229 -1.83507,6.59686 z" />
      <path
         id="path919"
         style="fill:#17cdfc;fill-opacity:1;stroke:none;stroke-width:0.264583px;stroke-linecap:butt;stroke-linejoin:miter;stroke-opacity:1"
         d="m 318.31607,146.7037 c -6.10652,2.70697 -7.93944,-3.25662 -7.93944,-3.25662 0,0 5.49272,-2.95875 7.93944,3.25662 z" />
      <path
         id="path921"
         style="fill:#6569c8;fill-opacity:1;stroke:none;stroke-width:0.211119px;stroke-linecap:butt;stroke-linejoin:miter;stroke-opacity:1"
         d="m 317.25749,138.96641 c -1.91809,4.97275 -6.31705,2.64214 -6.31705,2.64214 0,0 1.42971,-4.7685 6.31705,-2.64214 z" />
      <path
         id="path923"
         style="fill:#6569c8;fill-opacity:1;stroke:none;stroke-width:0.211119px;stroke-linecap:butt;stroke-linejoin:miter;stroke-opacity:1"
         d="m 312.12914,151.469 c 2.12635,-4.88733 -2.64215,-6.31705 -2.64215,-6.31705 0,0 -2.33062,4.39896 2.64215,6.31705 z" />
      <path
         id="path927"
         style="fill:#17cdfc;fill-opacity:1;stroke:none;stroke-width:0.264583px;stroke-linecap:butt;stroke-linejoin:miter;stroke-opacity:1"
         d="m 235.79348,147.3211 c 1.62917,-6.47789 7.45606,-4.24823 7.45606,-4.24823 0,0 -1.05272,6.14946 -7.45606,4.24823 z" />
      <path
         id="path929"
         style="fill:#6569c8;fill-opacity:1;stroke:none;stroke-width:0.211119px;stroke-linecap:butt;stroke-linejoin:miter;stroke-opacity:1"
         d="m 242.54061,151.25334 c -2.73575,-4.57417 1.80993,-6.60381 1.80993,-6.60381 0,0 2.87569,4.06363 -1.80993,6.60381 z" />
      <path
         id="path931"
         style="fill:#6569c8;fill-opacity:1;stroke:none;stroke-width:0.211119px;stroke-linecap:butt;stroke-linejoin:miter;stroke-opacity:1"
         d="m 235.85074,139.51194 c 2.54017,4.68561 6.60381,1.80992 6.60381,1.80992 0,0 -2.02963,-4.54568 -6.60381,-1.80992 z" />
      <path
         id="path935"
         style="fill:#17cdfc;fill-opacity:1;stroke:none;stroke-width:0.264583px;stroke-linecap:butt;stroke-linejoin:miter;stroke-opacity:1"
         d="m 257.91454,168.26602 c -2.83881,-6.04635 3.08361,-8.00822 3.08361,-8.00822 0,0 3.07722,5.42723 -3.08361,8.00822 z" />
      <path
         id="path937"
         style="fill:#6569c8;fill-opacity:1;stroke:none;stroke-width:0.211119px;stroke-linecap:butt;stroke-linejoin:miter;stroke-opacity:1"
         d="m 265.62705,167.03984 c -5.0132,-1.80977 -2.77857,-6.25825 -2.77857,-6.25825 0,0 4.79839,1.32593 2.77857,6.25825 z" />
      <path
         id="path939"
         style="fill:#6569c8;fill-opacity:1;stroke:none;stroke-width:0.211119px;stroke-linecap:butt;stroke-linejoin:miter;stroke-opacity:1"
         d="m 253.01615,162.18393 c 4.9323,2.01982 6.25823,-2.77857 6.25823,-2.77857 0,0 -4.44847,-2.23464 -6.25823,2.77857 z" />
    </g>
  </g>
</svg>
